<svg id="Layer_1" data-name="Layer 1" xmlns="http://www.w3.org/2000/svg" viewBox="0 0 64 64"><defs><style>.cls-1{fill:#19b6c8;}</style></defs><path class="cls-1" d="M33,62.44c-10.25-.07-18.56-3-24.93-10.45C1.2,44-.71,34.44,1.9,24.2c3.25-12.75,11.86-19.72,24-22,9.34-1.73,18.22-.11,26,5.9,8.52,6.62,12,15.71,11.26,26.67A29.36,29.36,0,0,1,37.34,62C35.62,62.25,33.89,62.36,33,62.44ZM19.56,41.56c-1-.63-1.93-1.18-2.81-1.82A10.51,10.51,0,0,1,12.4,33a8.67,8.67,0,0,1,1.45-7.08c2.5-3.57,4.4-7.58,6.59-11.4a3.18,3.18,0,0,1,.9-.89c4.28-3.22,9.83-2.71,14.19,1.28-.89,1.75-.87,2.9.39,3.74,3.55,2.37,7.17,4.65,10.78,6.94a1.78,1.78,0,0,0,2.53-.49,7.2,7.2,0,0,0,.68-2.49,6.72,6.72,0,0,1,.25-1.67c1.3-2.41,1.2-5.07-.63-6.54a31.7,31.7,0,0,0-5.37-3.46,3.48,3.48,0,0,0-2.84-.08c-1.54.82-2.6.29-3.78-.61a20.86,20.86,0,0,0-2.16-1.38,14.36,14.36,0,0,0-14-.82,62.84,62.84,0,0,0-6.25,3.81,2.41,2.41,0,0,0-.62.78c-2,3.32-4,6.63-5.91,10A7.32,7.32,0,0,0,8,24.93c-.09.56,0,1.16-.1,1.71C6.63,32.71,8,38,12.34,42.29a36,36,0,0,0,5.32,3.82,2,2,0,0,1,1,1.87A4.57,4.57,0,0,0,21,52.05l3.47,2.24a4.6,4.6,0,0,0,4.94.28,2,2,0,0,1,1.5,0,9.11,9.11,0,0,0,8.77-.6c2.5-1.47,3.76-4,5.27-6.36a2.1,2.1,0,0,1,1.73-1.18,3.73,3.73,0,0,0,2.36-1.3,41.28,41.28,0,0,0,3-4.93A3.43,3.43,0,0,0,51,35.67a3.11,3.11,0,0,0-4.2,1.14c-.93,1.48-1.76,3-2.67,4.49a3.8,3.8,0,0,0-.22,3.5,1.9,1.9,0,0,1-.07,1.41A47.4,47.4,0,0,1,41,50.58a7.67,7.67,0,0,1-9.87,2c.53-.4.93-.93,1.41-1a2.43,2.43,0,0,0,2.15-2,2.61,2.61,0,0,0-1.46-2.87c-3-1.89-6-3.88-9-5.82C22.06,39.42,21.34,39.52,19.56,41.56Z"/></svg>