<?xml version="1.0" standalone="no"?>
<!DOCTYPE svg PUBLIC "-//W3C//DTD SVG 20010904//EN"
 "http://www.w3.org/TR/2001/REC-SVG-20010904/DTD/svg10.dtd">
<svg version="1.0" xmlns="http://www.w3.org/2000/svg"
 width="1460.000000pt" height="301.000000pt" viewBox="0 0 1460.000000 301.000000"
 preserveAspectRatio="xMidYMid meet" style="width: 137px;">

<g transform="translate(0.000000,301.000000) scale(0.100000,-0.100000)"
fill="#000000" stroke="none">
<path d="M1470 2690 c-437 -61 -772 -285 -952 -635 -158 -309 -169 -691 -30
-1013 149 -344 460 -588 862 -677 100 -22 401 -31 512 -16 508 72 902 405
1018 861 57 225 47 497 -27 703 -141 397 -477 674 -923 762 -99 19 -365 28
-460 15z m188 -216 c29 -8 69 -24 90 -36 89 -49 130 -73 168 -99 l41 -28 39
20 c29 15 53 19 95 17 49 -4 69 -12 160 -70 116 -74 141 -97 158 -147 19 -57
13 -104 -20 -166 -22 -41 -27 -61 -20 -68 14 -14 14 -50 -1 -82 -13 -28 -55
-55 -85 -55 -10 0 -74 34 -143 76 -69 43 -152 93 -185 113 -136 83 -162 102
-173 126 -16 34 -15 50 3 85 l15 28 -73 47 c-39 25 -97 53 -127 63 -73 22
-204 21 -268 -3 -74 -28 -149 -80 -156 -108 -9 -36 -263 -447 -294 -476 -24
-21 -27 -32 -30 -115 -8 -180 59 -299 227 -407 l75 -48 15 22 c23 34 43 46 74
47 35 0 35 0 227 -118 286 -176 290 -179 290 -230 0 -18 -5 -42 -11 -54 -11
-21 -74 -52 -88 -43 -12 7 -45 -45 -34 -55 37 -33 167 -39 248 -11 78 27 122
66 192 168 85 125 86 126 68 160 -30 57 -17 97 87 258 53 83 65 94 112 102 71
11 129 -27 142 -92 9 -51 1 -72 -73 -191 -72 -114 -105 -144 -163 -144 -33 0
-38 -5 -95 -92 -105 -160 -190 -227 -317 -248 -66 -10 -174 2 -219 26 -27 14
-34 14 -62 1 -86 -40 -127 -33 -249 40 -144 86 -165 110 -183 207 l-11 58 -93
57 c-165 99 -269 218 -321 371 -30 87 -38 243 -18 325 9 33 13 77 11 97 -5 39
-14 23 182 343 95 155 101 162 142 176 21 7 44 18 51 26 25 25 126 89 167 105
141 58 284 65 433 22z"/>
<path d="M3941 2632 c-15 -29 -991 -2241 -991 -2247 0 -3 147 -4 326 -3 l326
3 87 215 88 215 484 2 484 3 83 -208 c45 -114 86 -213 90 -220 7 -9 81 -12
339 -10 l330 3 -501 1132 -501 1133 -317 0 c-295 0 -318 -1 -327 -18z m609
-1329 c0 -2 -131 -3 -291 -3 -229 0 -290 3 -286 13 3 6 63 154 132 327 70 173
134 331 142 350 l15 35 144 -360 c79 -198 144 -361 144 -362z"/>
<path d="M5780 1515 l0 -1135 865 0 865 0 0 255 0 255 -545 0 -545 0 0 880 0
880 -320 0 -320 0 0 -1135z"/>
<path d="M7760 1515 l0 -1135 865 0 865 0 0 255 0 255 -545 0 -545 0 0 880 0
880 -320 0 -320 0 0 -1135z"/>
<path d="M9650 2400 l0 -250 555 0 c346 0 555 -4 555 -10 0 -5 -256 -314 -570
-686 l-570 -676 0 -199 0 -199 1020 0 1020 0 0 255 0 255 -596 2 -595 3 570
677 571 677 0 201 0 200 -980 0 -980 0 0 -250z"/>
<path d="M11672 2628 c8 -13 202 -337 431 -720 l417 -697 0 -416 0 -415 325 0
325 0 0 412 0 412 427 715 c234 394 428 719 430 724 2 4 -135 7 -306 7 l-310
0 -266 -445 c-146 -245 -269 -445 -273 -444 -4 0 -126 200 -271 445 l-265 444
-339 0 -339 0 14 -22z"/>
</g>
</svg>
