<svg xmlns="http://www.w3.org/2000/svg" xmlns:xlink="http://www.w3.org/1999/xlink" version="1.1" id="Layer_1" x="0px" y="0px" style="enable-background:new 0 0 2000 2000;" xml:space="preserve" viewBox="294.2 811.66 1411.6 376.69">
<style type="text/css">
	.st0{display:none;fill:#FFFFFF;stroke:#000000;stroke-miterlimit:10;}
	.st1{fill:#1BC1CC;}
	.st2{fill:#333333;}
	.st3{fill:#4E4D4D;}
	.st4{opacity:0.2;}
</style>
<rect class="st0" width="2000" height="2000"/>
<g>
	<g>
		<path class="st1" d="M694.85,913.85h39.8l37.52,122.18l37.52-122.18h38.78l-59.82,178.45h-33.97L694.85,913.85z"/>
		<path class="st1" d="M847.71,1025.13v-2.79c0-40.3,27.38-69.45,64.13-69.45s63.63,28.65,63.63,69.2v2.79    c0,40.31-27.12,69.45-63.88,69.45S847.71,1065.69,847.71,1025.13z M939.97,1024.63v-1.78c0-22.05-11.15-38.78-28.39-38.78    c-17.99,0-28.39,16.47-28.39,38.53v1.77c0,21.8,11.4,38.79,28.64,38.79C929.58,1063.16,939.97,1046.69,939.97,1024.63z"/>
		<path class="st1" d="M988.91,1075.07l15.71-25.35c12.16,9.37,25.09,15.2,36.25,15.2c10.14,0,14.45-4.81,14.45-10.39v-0.51    c0-7.85-10.14-11.15-24.84-17.48c-19.26-8.37-35.75-18-35.75-41.07v-0.51c0-26.11,20.28-41.57,46.65-41.57    c14.7,0,31.18,5.07,44.87,14.7l-14.45,25.86c-10.14-6.59-21.29-11.66-30.93-11.66c-8.62,0-13.18,4.31-13.18,9.63v0.51    c0,7.1,10.14,11.15,24.59,17.74c19.77,9.38,36,19.26,36,40.81v0.51c0,28.14-20.78,42.33-47.91,42.33    C1024.4,1093.83,1005.38,1088.51,988.91,1075.07z"/>
		<path class="st2" d="M1113.63,913.85h36.76v143.73h71.73v33.72h-108.49V913.85z"/>
		<path class="st2" d="M1235.57,1025.13v-2.79c0-40.3,27.38-69.45,64.13-69.45c36.76,0,63.63,28.65,63.63,69.2v2.79    c0,40.31-27.12,69.45-63.88,69.45S1235.57,1065.69,1235.57,1025.13z M1327.84,1024.63v-1.78c0-22.05-11.16-38.78-28.39-38.78    c-17.99,0-28.39,16.47-28.39,38.53v1.77c0,21.8,11.41,38.79,28.65,38.79C1317.44,1063.16,1327.84,1046.69,1327.84,1024.63z"/>
		<path class="st2" d="M1387.92,1118.67l11.15-27.89c10.9,6.09,24.33,9.89,38.53,9.89c22.56,0,33.46-10.39,33.46-32.2v-8.62    c-9.12,11.92-19.76,21.29-38.02,21.29c-26.87,0-50.7-21.03-50.7-63.87v-0.76c0-42.85,24.08-63.63,50.7-63.63    c18.5,0,29.15,9.38,37.77,20.02v-17.48h36v111.02c0,21.55-5.32,37.01-15.46,47.41c-11.41,11.15-28.65,16.22-51.71,16.22    C1420.62,1130.08,1403.64,1126.02,1387.92,1118.67z M1471.32,1017.02v-0.25c0-20.02-11.41-32.96-26.62-32.96    c-15.21,0-26.36,12.93-26.36,32.96v0.25c0,20.53,11.15,33.21,26.36,33.21C1459.91,1050.23,1471.32,1037.31,1471.32,1017.02z"/>
		<path class="st2" d="M1536.22,908.28h37.52v32.7h-37.52V908.28z M1536.98,955.43h36v135.87h-36V955.43z"/>
		<path class="st2" d="M1598.07,1025.39v-3.05c0-40.3,26.11-69.45,62.87-69.45c19.51,0,32.7,6.59,44.36,18.25l-19.52,26.11    c-6.59-6.84-13.43-12.16-24.33-12.16c-16.47,0-27.63,15.71-27.63,37.77v1.02c0,22.55,10.39,38.27,28.39,38.27    c10.65,0,17.49-5.06,24.59-12.41l19,23.82c-11.15,12.42-24.84,20.78-46.13,20.78C1623.68,1094.34,1598.07,1065.44,1598.07,1025.39    z"/>
	</g>
	<g>
		<path class="st1" d="M294.2,1000.1c0,99.5,77.17,180.79,174.9,187.76L307.84,929.93C299.12,951.63,294.2,975.27,294.2,1000.1z"/>
		<path class="st2" d="M482.63,811.66c-74.78,0-139.2,43.67-169.64,106.81h189.65l-58.25,93.12v-35.29h-39.54l73.13,116.51    l139.97-223.66C583.7,833.75,535.78,811.66,482.63,811.66z"/>
		<path class="st1" d="M658.91,934.04l8.22-35.91c0,0-25.11,41.52-25.87,42.73l-154.68,247.49c102.23-2.12,184.5-85.5,184.5-188.24    C671.07,976.81,666.67,954.6,658.91,934.04z"/>
	</g>
</g>
</svg>