<svg id="Layer_1" data-name="Layer 1" xmlns="http://www.w3.org/2000/svg" viewBox="0 0 137 24"><defs><style>.cls-1{fill:#007bff;}</style></defs><path class="cls-1" d="M13.08,23.88C8.92,23.85,5.54,22.71,3,19.8A11.16,11.16,0,0,1,.44,9C1.76,4,5.26,1.26,10.2.38a13.1,13.1,0,0,1,10.54,2.3,11.18,11.18,0,0,1,4.58,10.41A11.67,11.67,0,0,1,14.84,23.72C14.14,23.8,13.44,23.85,13.08,23.88ZM7.61,15.73c-.4-.25-.78-.46-1.14-.71A4.11,4.11,0,0,1,4.7,12.38a3.31,3.31,0,0,1,.59-2.76c1-1.4,1.79-3,2.68-4.45a1.24,1.24,0,0,1,.37-.35,4.52,4.52,0,0,1,5.77.5c-.37.68-.36,1.13.15,1.46,1.45.92,2.92,1.81,4.39,2.71a.75.75,0,0,0,1-.19,2.73,2.73,0,0,0,.27-1c.05-.22,0-.48.1-.66a1.92,1.92,0,0,0-.25-2.55,13.29,13.29,0,0,0-2.19-1.35,1.44,1.44,0,0,0-1.15,0,1.29,1.29,0,0,1-1.53-.24A7.9,7.9,0,0,0,14.05,3a6,6,0,0,0-5.71-.32A24,24,0,0,0,5.8,4.13a.94.94,0,0,0-.26.3c-.8,1.3-1.62,2.59-2.4,3.9a2.71,2.71,0,0,0-.23.91c0,.22,0,.45,0,.67A6.1,6.1,0,0,0,4.68,16a15,15,0,0,0,2.16,1.49.76.76,0,0,1,.43.72,1.74,1.74,0,0,0,.94,1.59l1.41.88a2,2,0,0,0,2,.11.81.81,0,0,1,.61,0,3.86,3.86,0,0,0,3.57-.23A6.94,6.94,0,0,0,18,18.07a.83.83,0,0,1,.7-.45,1.59,1.59,0,0,0,1-.51,15,15,0,0,0,1.23-1.93,1.26,1.26,0,1,0-2.17-1.3c-.37.57-.71,1.17-1.08,1.75A1.43,1.43,0,0,0,17.5,17a.72.72,0,0,1,0,.56,19.49,19.49,0,0,1-1.15,1.7,3.21,3.21,0,0,1-4,.77c.21-.16.37-.36.57-.41a1,1,0,0,0,.87-.77,1,1,0,0,0-.59-1.12c-1.23-.74-2.43-1.52-3.64-2.27C8.63,14.89,8.34,14.94,7.61,15.73Z"/><path class="cls-1" d="M25,23.91,36.17.09h4.89L52.21,23.91H46l-2.06-4.83H33.3l-2.06,4.83ZM38.57,6.58l-3.25,7.73h6.56L38.63,6.58Z"/><path class="cls-1" d="M54.1,23.91V.09h6.22V18.74h10.6v5.17Z"/><path class="cls-1" d="M74.3,23.91V.09h6.21V18.74H91.12v5.17Z"/><path class="cls-1" d="M93.85,23.91V19.35L105,5.19H93.85V.09h18.38V4.65L101.05,18.81h11.69v5.1Z"/><path class="cls-1" d="M121.65,23.91V13.37L112.5.09h7.13l5.23,7.74L130.1.09H137l-9.15,13.28V23.91Z"/></svg>