<svg xmlns="http://www.w3.org/2000/svg" xmlns:xlink="http://www.w3.org/1999/xlink" width="87.314" height="94.84" viewBox="0 0 87.314 94.84"><defs><style>.a{fill:#033b76;}.b{fill:#1b2334;font-size:7px;font-family:Gotham-Light, Gotham;font-weight:300;letter-spacing:0.5em;}.c{filter:url(#c);}.d{filter:url(#a);}</style><filter id="a" x="0" y="0" width="58.61" height="88.152" filterUnits="userSpaceOnUse"><feOffset dx="7" dy="7" input="SourceAlpha"/><feGaussianBlur stdDeviation="2.5" result="b"/><feFlood flood-opacity="0.161"/><feComposite operator="in" in2="b"/><feComposite in="SourceGraphic"/></filter><filter id="c" x="39.099" y="1.574" width="48.215" height="86.45" filterUnits="userSpaceOnUse"><feOffset dx="7" dy="7" input="SourceAlpha"/><feGaussianBlur stdDeviation="2.5" result="d"/><feFlood flood-opacity="0.161"/><feComposite operator="in" in2="d"/><feComposite in="SourceGraphic"/></filter></defs><g transform="translate(1251.435 1403.332)"><g class="d" transform="matrix(1, 0, 0, 1, -1251.44, -1403.33)"><path class="a" d="M-1241.553-1373.1c0,13.619,0,27.239.1,40.857.015,1.991-.665,2.669-2.569,2.534a31.905,31.905,0,0,0-4.451.014c-1.82.127-2.456-.542-2.441-2.43.105-14.023.116-28.047.141-42.071,0-1.059-.1-2.118-.162-3.176,0-.028,0-.055,0-.083.025-7.6.1-15.208.036-22.812-.018-1.974.7-2.588,2.59-2.566,6.808.077,13.618-.009,20.426.068,9.975.113,17.058,5.475,19.356,14.536a17.226,17.226,0,0,1-8.129,19.215c-1.235.7-1.24,1.221-.383,2.186,1.322,1.487,2.565,3.044,3.84,4.573a1.139,1.139,0,0,1,.1.135,44.978,44.978,0,0,0,4.96,6.21c1.082,1.22,1.1,2.066,0,3.212-1.254,1.31-2.387,2.74-3.529,4.152-.8.995-1.308,1.27-2.329.019-6.908-8.458-13.923-16.828-20.887-25.239-.435-.525-1.254-1.095-.666-1.73a1.206,1.206,0,0,1,.984-.353c3.9.309,7.8.472,11.6-.635a7.4,7.4,0,0,0,5.36-6.867c.356-5.657-3.543-9.854-9.475-10.006-4.313-.111-8.633.028-12.948-.038-1.2-.018-1.458.4-1.439,1.513.073,4.315.035,8.632.088,12.948" transform="translate(1251.44 1403.33)"/></g><g class="c" transform="matrix(1, 0, 0, 1, -1251.44, -1403.33)"><path class="a" d="M-976.617-1349.023c-2.683,3.07-2.753,3.129-5.226-.015-.845-1.075-1.748-2.167-2.633-3.35a1.6,1.6,0,0,1,.049-1.878q12.886-15.478,25.781-30.948c1.659-1.987,2.784-3.331,4.935-6,.494-.419.767-1.094,1.472-.85.834.287.608,1.106.61,1.75q.034,16.479.05,32.959.01,6.166.037,12.332l-.013.525-.036,22.546a.957.957,0,0,1-.436.806,3.83,3.83,0,0,1-1.991.443c-1.374.052-3.165-.067-4.748.029a2.068,2.068,0,0,1-2.253-1.183.48.48,0,0,1-.045-.206c0-15.017,0-30.036,0-45.638" transform="translate(1024.36 1394.19)"/></g><text class="b" transform="translate(-1236.682 -1309.491)"><tspan x="0" y="0">CALLZY</tspan></text></g></svg>