<?xml version="1.0" encoding="utf-8"?>
<!-- Generator: Adobe Illustrator 26.5.0, SVG Export Plug-In . SVG Version: 6.00 Build 0)  -->
<svg version="1.1" id="Layer_1" xmlns="http://www.w3.org/2000/svg" xmlns:xlink="http://www.w3.org/1999/xlink" x="0px" y="0px"
	 viewBox="0 0 304.2 72.5" style="enable-background:new 0 0 304.2 72.5;" xml:space="preserve">
<style type="text/css">
	.st0{fill:url(#SVGID_1_);}
	.st1{fill:url(#SVGID_00000138537469665504348930000002562080997475883920_);}
	.st2{fill:#00ADFE;}
	.st3{fill:#FFFFFF;}
</style>
<g>
	
		<linearGradient id="SVGID_1_" gradientUnits="userSpaceOnUse" x1="-42.6986" y1="-65.5223" x2="-22.2821" y2="-56.2397" gradientTransform="matrix(0.9938 -0.1111 -0.1111 -0.9938 79.2505 -25.4449)">
		<stop  offset="0.1495" style="stop-color:#0060BE"/>
		<stop  offset="1" style="stop-color:#00BEFF"/>
	</linearGradient>
	<path class="st0" d="M63.4,33.8c-0.1,1.2-0.6,2.3-1,3.4c-2.2,5.1-4.4,10.2-6.7,15.3c-0.2,0.4-0.4,0.8-0.6,1.3l-9.6-11.6L43.7,40
		l-2.3-2.8l1-3.6c0,0,0-0.1,0-0.1c0.6-2.2,1.4-3.9,3.1-5.5c1.7-1.6,3.8-2.6,6.1-2.9c4-0.5,8.1,1.3,10.5,4.6c0.8,1.1,1.4,2.4,1.4,3.7
		C63.4,33.5,63.4,33.6,63.4,33.8z"/>
	
		<linearGradient id="SVGID_00000142861505318986504230000014184825934585041303_" gradientUnits="userSpaceOnUse" x1="22.8166" y1="59.1169" x2="45.1897" y2="15.8321" gradientTransform="matrix(1 0 0 -1 0 74)">
		<stop  offset="0" style="stop-color:#00C9FF"/>
		<stop  offset="0.9907" style="stop-color:#0092FE"/>
		<stop  offset="1" style="stop-color:#0092FE"/>
	</linearGradient>
	<path style="fill:url(#SVGID_00000142861505318986504230000014184825934585041303_);" d="M6.6,8.3h19.2c1.7,0,3.3,0.9,4.2,2.4
		l23.8,39.4c2,3.3,2.1,7.5-0.1,10.7c-1.3,1.9-3.4,3.5-6.6,3.8c-4.8,0.5-9.3-2.1-11.7-6.3L6.6,8.3z"/>
	<path class="st2" d="M72.3,15.3c0.5,4.6-2.8,8.7-7.3,9.2c-2.9,0.3-5.5-0.8-7.3-2.9l-0.6-0.7l-9.8-13h15.8
		C67.7,7.4,71.8,10.7,72.3,15.3z"/>
</g>
<g>
	<g>
		<path class="st3" d="M112.6,20.7h6.2l-9,36.6H98.2l-9-36.6h6.2l7.3,31.4h2.7L112.6,20.7z"/>
		<path class="st3" d="M148.4,53.4c-2.2,3-6,4.5-11.6,4.5c-5.5,0-9.4-1.5-11.6-4.5s-3.3-7.7-3.3-14.2c0-6.4,1.1-11.2,3.3-14.4
			c2.2-3.1,6.1-4.7,11.6-4.7s9.3,1.6,11.5,4.7s3.3,7.9,3.3,14.4C151.7,45.7,150.6,50.4,148.4,53.4z M129.9,49.5
			c1.2,2.1,3.5,3.2,6.9,3.2s5.7-1,6.9-3.1s1.8-5.5,1.8-10.4s-0.6-8.4-1.8-10.6s-3.5-3.3-6.9-3.3c-3.3,0-5.6,1.1-6.9,3.3
			c-1.2,2.2-1.9,5.7-1.9,10.5C128.1,44,128.7,47.4,129.9,49.5z"/>
		<path class="st3" d="M170.9,57.9c-5.3,0-9-1.5-10.9-4.4c-1.9-3-2.9-7.8-2.9-14.6s1-11.6,2.9-14.4c1.9-2.9,5.5-4.3,10.8-4.3
			c3.2,0,6.7,0.4,10.5,1.3l-0.2,4.8c-3.2-0.6-6.4-0.9-9.6-0.9s-5.4,1-6.5,2.9s-1.7,5.5-1.7,10.7s0.6,8.8,1.7,10.7
			c1.1,1.9,3.3,2.9,6.5,2.9s6.4-0.3,9.7-0.8l0.2,4.9C177.6,57.5,174.1,57.9,170.9,57.9z"/>
		<path class="st3" d="M212.1,53.4c-2.2,3-6,4.5-11.6,4.5c-5.5,0-9.4-1.5-11.6-4.5c-2.2-3-3.3-7.7-3.3-14.2c0-6.4,1.1-11.2,3.3-14.4
			c2.2-3.1,6.1-4.7,11.6-4.7s9.3,1.6,11.5,4.7s3.3,7.9,3.3,14.4C215.3,45.7,214.2,50.4,212.1,53.4z M193.6,49.5
			c1.2,2.1,3.5,3.2,6.9,3.2s5.7-1,6.9-3.1s1.8-5.5,1.8-10.4s-0.6-8.4-1.8-10.6s-3.5-3.3-6.9-3.3c-3.3,0-5.6,1.1-6.9,3.3
			c-1.2,2.2-1.9,5.7-1.9,10.5C191.7,44,192.3,47.4,193.6,49.5z"/>
		<path class="st3" d="M234.9,57.3h-12.7V20.7h12.7c5.6,0,9.5,1.4,11.5,4.3c2.1,2.8,3.1,7.3,3.1,13.4c0,3.1-0.2,5.7-0.6,7.9
			c-0.4,2.2-1.1,4.1-2.2,5.8C244.7,55.6,240.8,57.3,234.9,57.3z M243.4,38.4c0-4.4-0.6-7.6-1.7-9.6c-1.1-2-3.4-2.9-6.8-2.9h-6.7
			v26.2h6.7c3.5,0,5.9-1.3,7-3.9c0.6-1.3,1-2.7,1.1-4.2C243.3,42.4,243.4,40.6,243.4,38.4z"/>
		<path class="st3" d="M256.5,57.3V20.7h5.9v36.6H256.5z"/>
		<path class="st3" d="M267.7,57.3l9-36.6h11.8l9.1,36.6h-6l-2-7.9h-14l-2,7.9H267.7z M281.3,25.7l-4.5,18.5h11.7L284,25.7H281.3z"
			/>
	</g>
</g>
</svg>
