<svg xmlns="http://www.w3.org/2000/svg" width="8.441" height="18.01" viewBox="0 0 8.441 18.01"><defs><style>.a{fill:#0ca2ad;}</style></defs><path class="a" d="M-2059.184,1543.767c-.515,0-.982,0-1.45,0-.367,0-.4-.042-.4-.4,0-.766.008-1.531-.008-2.3-.006-.3.1-.4.393-.385.4.02.8,0,1.194.008.216.007.278-.074.28-.284,0-.908-.012-1.818.047-2.723a3.156,3.156,0,0,1,2.893-2.808c1.111-.041,2.225-.012,3.338-.018.2,0,.3.076.295.289q-.008,1.24,0,2.481c0,.216-.1.288-.3.286q-.8-.006-1.593,0a.883.883,0,0,0-.99,1.006c0,.49.009.98,0,1.47-.006.225.07.3.3.3.735-.01,1.47,0,2.2-.006.258,0,.348.094.326.346-.071.823-.132,1.647-.2,2.47-.019.232-.178.269-.368.269-.613,0-1.225,0-1.838,0-.421,0-.422,0-.422.437q0,4.12,0,8.239c0,.4-.007.414-.411.416q-1.424,0-2.848,0c-.407,0-.432-.027-.432-.438q0-4.1,0-8.208Z" transform="translate(2061.047 -1534.85)"/></svg>