<svg xmlns="http://www.w3.org/2000/svg" width="13.461" height="13.463" viewBox="0 0 13.461 13.463"><defs><style>.a{fill:#0ca2ad;}</style></defs><path class="a" d="M-858.691,1564.74c0,1.363,0,2.725,0,4.088a2.583,2.583,0,0,1-2.577,2.624q-4.147.023-8.294,0a2.584,2.584,0,0,1-2.58-2.6q-.015-4.111,0-8.223a2.593,2.593,0,0,1,2.653-2.625q4.088-.006,8.176,0a2.589,2.589,0,0,1,2.624,2.625C-858.689,1562-858.691,1563.37-858.691,1564.74Zm-6.729,5.391c1.347,0,2.694,0,4.041,0a1.256,1.256,0,0,0,1.365-1.36q0-2.519,0-5.039c0-.063,0-.127-.006-.19a.185.185,0,0,0-.193-.2q-.784-.007-1.568,0c-.128,0-.188.072-.147.205.025.083.05.167.073.251a3.685,3.685,0,0,1-4.393,4.51,3.679,3.679,0,0,1-2.7-4.619c.089-.323.067-.353-.273-.355q-.606,0-1.212,0c-.368,0-.392.024-.392.392q0,2.507,0,5.015a1.263,1.263,0,0,0,1.384,1.389Q-867.429,1570.134-865.42,1570.131Zm0-7.761a2.339,2.339,0,0,0-2.36,2.35,2.35,2.35,0,0,0,2.372,2.365,2.335,2.335,0,0,0,2.343-2.365A2.33,2.33,0,0,0-865.416,1562.37Zm4.014-.525v0c.293,0,.586,0,.879,0,.171,0,.268-.069.267-.253q0-.879,0-1.758c0-.174-.076-.266-.256-.266l-1.781,0a.207.207,0,0,0-.238.23q0,.89.013,1.781c0,.185.1.271.285.267C-861.956,1561.842-861.678,1561.846-861.4,1561.846Z" transform="translate(872.151 -1558)"/></svg>