<svg xmlns="http://www.w3.org/2000/svg" width="15.53" height="12.586" viewBox="0 0 15.53 12.586"><defs><style>.a{fill:#0ca2ad;}</style></defs><path class="a" d="M-1490.785,1584.972a6.665,6.665,0,0,0,4.632-1.314,3.291,3.291,0,0,1-2.972-2.165c.426-.022.825-.042,1.225-.066a.56.56,0,0,0,.131-.056,3.273,3.273,0,0,1-2.073-1.523,2.8,2.8,0,0,1-.412-1.554l1.323.368.044-.077a3.215,3.215,0,0,1-1.28-1.909,3.087,3.087,0,0,1,.356-2.277,9.3,9.3,0,0,0,6.633,3.308c-.02-.2-.041-.351-.05-.507a3.153,3.153,0,0,1,1.8-3.069,3.251,3.251,0,0,1,3.572.5.413.413,0,0,0,.476.12c.5-.191,1-.373,1.492-.561.072-.027.139-.069.268-.134a3.217,3.217,0,0,1-1.3,1.676l.032.075,1.632-.434a.669.669,0,0,1-.083.138c-.421.432-.835.871-1.272,1.286a.458.458,0,0,0-.175.38,9.058,9.058,0,0,1-6.132,8.726,9.314,9.314,0,0,1-7.734-.8,1.1,1.1,0,0,1-.108-.072C-1490.768,1585.028-1490.77,1585.011-1490.785,1584.972Z" transform="translate(1490.785 -1573.809)"/></svg>