<svg xmlns="http://www.w3.org/2000/svg" width="17.344" height="8.67" viewBox="0 0 17.344 8.67"><defs><style>.a{fill:#0ca2ad;}</style></defs><path class="a" d="M-280.031,1640.755q2.8,0,5.6,0a2.981,2.981,0,0,1,2.275.982,2.769,2.769,0,0,1,.712,1.383,3.738,3.738,0,0,1,.067.679q.011,1.346,0,2.693a2.847,2.847,0,0,1-.6,1.727,2.918,2.918,0,0,1-1.67,1.1,3.7,3.7,0,0,1-.9.1c-3.762,0-7.523.006-11.285-.008a2.769,2.769,0,0,1-1.759-.664,2.893,2.893,0,0,1-1.034-1.657,3.345,3.345,0,0,1-.08-.678c-.007-.945-.014-1.89,0-2.835a2.737,2.737,0,0,1,.569-1.594,2.962,2.962,0,0,1,1.345-1.032,2.967,2.967,0,0,1,1.062-.2Zm1.2,7.006c.052.041.079.063.108.084.12.088.235.184.36.263a.864.864,0,0,0,.872.051.718.718,0,0,0,.4-.7c.01-.494,0-.988,0-1.482,0-.585,0-1.17,0-1.755a.734.734,0,0,0-.625-.771,1.091,1.091,0,0,0-.824.231c-.093.065-.18.137-.3.225v-.183c0-.567,0-1.134,0-1.7,0-.094-.028-.127-.124-.125-.258.006-.516,0-.774,0-.155,0-.154,0-.154.156q0,1.978,0,3.956,0,1.019,0,2.038c0,.08,0,.143.112.142.28,0,.56,0,.839,0,.079,0,.1-.037.1-.107C-278.834,1647.984-278.832,1647.887-278.832,1647.76Zm-3.171.035a2.269,2.269,0,0,1,.07.286c.009.088.051.108.128.107.24,0,.48,0,.719,0,.132,0,.139-.008.139-.145q0-.812,0-1.624,0-1.4,0-2.8c0-.133-.009-.14-.144-.141-.254,0-.509,0-.763,0-.108,0-.146.029-.145.141,0,.643,0,1.286,0,1.929,0,.549,0,1.1,0,1.646,0,.039-.009.1-.035.114a1.358,1.358,0,0,1-.289.147c-.215.072-.355-.031-.369-.258,0-.04,0-.08,0-.12q0-1.722,0-3.444c0-.141-.011-.152-.147-.152-.262,0-.523,0-.785,0-.089,0-.121.029-.121.119,0,1.283,0,2.565.009,3.848a1.055,1.055,0,0,0,.092.421.781.781,0,0,0,.949.345,3.105,3.105,0,0,0,.495-.264A2.07,2.07,0,0,0-282,1647.8Zm7.888-1.807h.774c.073,0,.116-.019.115-.1,0-.476.02-.954-.009-1.428a.98.98,0,0,0-.635-.877,2.046,2.046,0,0,0-1.33-.071,1.051,1.051,0,0,0-.822,1c-.021.351-.018.7-.018,1.057,0,.534-.012,1.069.022,1.6a1.089,1.089,0,0,0,.872,1.025,2.065,2.065,0,0,0,1,0,1.116,1.116,0,0,0,.916-1.07c.009-.163,0-.327,0-.49,0-.089-.031-.123-.121-.122q-.4.005-.807,0c-.09,0-.122.032-.12.122,0,.167,0,.334,0,.5a.325.325,0,0,1-.34.336.3.3,0,0,1-.359-.305.786.786,0,0,1-.009-.108c0-.316,0-.633,0-.949,0-.09.029-.122.119-.121C-274.617,1645.991-274.366,1645.988-274.115,1645.988Zm-11.968-.527c0,.861,0,1.723,0,2.584,0,.107.026.148.139.145.265-.008.531,0,.8,0,.174,0,.174,0,.174-.173q0-2.568,0-5.136c0-.143,0-.143.144-.143h.807c.063,0,.119,0,.119-.089,0-.218,0-.436,0-.654,0-.077-.036-.1-.108-.1q-1.5,0-3,0c-.08,0-.1.032-.1.1,0,.207,0,.414,0,.621,0,.093.034.12.121.118.254,0,.509,0,.763,0,.112,0,.142.033.141.142C-286.085,1643.738-286.083,1644.6-286.083,1645.461Z" transform="translate(288.71 -1640.754)"/></svg>