<?xml version="1.0" encoding="utf-8"?>
<!-- Generator: Adobe Illustrator 24.3.0, SVG Export Plug-In . SVG Version: 6.00 Build 0)  -->
<svg version="1.1" id="Layer_1" xmlns="http://www.w3.org/2000/svg" xmlns:xlink="http://www.w3.org/1999/xlink" x="0px" y="0px"
	 viewBox="0 0 419.29 197.18" style="enable-background:new 0 0 419.29 197.18;" xml:space="preserve">
<style type="text/css">
	.st0{fill:#0EB8B7;}
	.st1{fill:url(#SVGID_1_);}
	.st2{fill:url(#SVGID_2_);}
	.st3{fill:url(#SVGID_3_);}
	.st4{fill:url(#SVGID_4_);}
	.st5{fill:url(#SVGID_5_);}
	.st6{fill:url(#SVGID_6_);}
	.st7{fill:url(#SVGID_7_);}
	.st8{fill:url(#SVGID_8_);}
	.st9{fill:url(#SVGID_9_);}
	.st10{fill:url(#SVGID_10_);}
	.st11{fill:url(#SVGID_11_);}
	.st12{fill:url(#SVGID_12_);}
	.st13{fill:url(#SVGID_13_);}
	.st14{fill:url(#SVGID_14_);}
	.st15{fill:#FFFFFF;}
	.st16{fill:url(#SVGID_15_);}
	.st17{fill:url(#SVGID_16_);}
</style>
<g>
	<g>
		<g>
			<g>
				<path class="st0" d="M260.74,116.13c0,2.57,0.64,4.44,1.92,5.62c1.28,1.18,3.16,1.85,5.62,2c2.46,0.15,5.52,0.13,9.17-0.07
					v17.31c-13.12,1.48-22.36,0.25-27.74-3.7c-5.38-3.94-8.06-10.99-8.06-21.15V52.07l19.08-5.77V116.13z"/>
			</g>
		</g>
		<g>
			<g>
				<path class="st0" d="M218.54,116.13c0,2.57,0.64,4.44,1.92,5.62c1.28,1.18,3.16,1.85,5.62,2c2.46,0.15,5.52,0.13,9.17-0.07
					v17.31c-13.12,1.48-22.36,0.25-27.74-3.7c-5.38-3.94-8.06-10.99-8.06-21.15V52.07l19.08-5.77V116.13z"/>
			</g>
		</g>
		<g>
			<g>
				<radialGradient id="SVGID_1_" cx="250.7424" cy="54.5922" r="83.9875" gradientUnits="userSpaceOnUse">
					<stop  offset="0" style="stop-color:#00367C;stop-opacity:0.8"/>
					<stop  offset="1" style="stop-color:#0EB8B7;stop-opacity:0"/>
				</radialGradient>
				<path class="st1" d="M268.28,123.74c-2.47-0.15-4.34-0.81-5.62-2c-1.28-1.18-1.92-3.06-1.92-5.62V74.36
					c-4.64-0.13-9.27-0.17-13.91,0.02c-1.73,0.07-3.45,0.2-5.17,0.36v41.39c0,10.16,2.69,17.21,8.06,21.15
					c5.37,3.94,14.62,5.18,27.74,3.7v-17.31C273.8,123.87,270.75,123.89,268.28,123.74z"/>
			</g>
		</g>
		<g>
			<g>
				<radialGradient id="SVGID_2_" cx="199.7607" cy="58.7791" r="90.1445" gradientUnits="userSpaceOnUse">
					<stop  offset="0" style="stop-color:#00367C;stop-opacity:0.8"/>
					<stop  offset="1" style="stop-color:#0EB8B7;stop-opacity:0"/>
				</radialGradient>
				<path class="st2" d="M226.08,123.74c-2.47-0.15-4.34-0.81-5.62-2c-1.28-1.18-1.92-3.06-1.92-5.62V78.2
					c-0.6,0.1-1.2,0.2-1.81,0.3c-4.48,0.72-8.43,1.39-11.11,3.26c-2.07,1.44-4.12,2.91-6.17,4.39v29.98
					c0,10.16,2.69,17.21,8.06,21.15c5.37,3.94,14.62,5.18,27.74,3.7v-17.31C231.61,123.87,228.55,123.89,226.08,123.74z"/>
			</g>
		</g>
		<g>
			<g>
				<path class="st0" d="M304.82,111.84c2.56,9.27,9.52,13.9,20.86,13.9c7.3,0,12.82-2.46,16.57-7.4l15.39,8.88
					c-7.3,10.55-18.05,15.83-32.25,15.83c-12.23,0-22.04-3.7-29.44-11.1c-7.4-7.4-11.1-16.72-11.1-27.96
					c0-11.14,3.65-20.44,10.95-27.88c7.3-7.45,16.66-11.17,28.1-11.17c10.85,0,19.8,3.75,26.85,11.24
					c7.05,7.5,10.58,16.77,10.58,27.81c0,2.47-0.25,5.08-0.74,7.84H304.82z M304.52,97.04h37.72c-1.08-5.03-3.33-8.78-6.73-11.24
					c-3.4-2.46-7.27-3.7-11.61-3.7c-5.13,0-9.37,1.31-12.72,3.92C307.83,88.64,305.61,92.31,304.52,97.04z"/>
			</g>
		</g>
		<g>
			<g>
				<path class="st0" d="M371.64,100.59c0.59-25.3,14.06-37.87,40.24-37.87h2.81v20.41h-6.66c-10.95,0-16.42,5.77-16.42,17.16v40.68
					h-19.97V100.59z"/>
			</g>
		</g>
		<g>
			<path class="st0" d="M243.81,69.33c-26.6,0-51.61,12.64-67.41,34.04l-8.55,11.57c-1.62,2.22-3.47,4.25-5.64,5.92
				c-6.5,4.95-13.2,5.53-20.22,1.81l38.2-40.61c-1.67-2.25-3.4-4.22-5.2-5.9c-8.04-7.58-17.21-11.35-27.49-11.35
				c-10.3,0-19.16,3.94-26.6,11.85c-7.84,8.33-11.53,17.71-11.12,28.12c0.42,10.42,4.7,19.45,12.81,27.09
				c8.18,7.69,17.5,11.39,27.96,11.08c7.46-0.24,14.79-3.11,21.41-7.98c4.09-3.01,7.57-6.75,10.59-10.83l7.73-10.5
				c12.54-16.99,32.4-27.01,53.51-27.01h22.87c8.74,0,15.81-7.07,15.81-15.81v-1.47H243.81z M127.56,100.36
				c0.4-4.23,2.34-8.22,5.85-11.95c2.98-3.17,6.53-5.15,10.66-5.93c4.12-0.79,8.38,0.14,12.79,2.79l-25.86,27.48
				C128.32,108.72,127.16,104.59,127.56,100.36z"/>
		</g>
		<g>
			<radialGradient id="SVGID_3_" cx="150.0105" cy="72.5712" r="112.0678" gradientUnits="userSpaceOnUse">
				<stop  offset="0" style="stop-color:#00367C;stop-opacity:0.8"/>
				<stop  offset="1" style="stop-color:#0EB8B7;stop-opacity:0"/>
			</radialGradient>
			<path class="st3" d="M110.94,112.72c1.81,7.13,5.69,13.51,11.67,19.13c1.9,1.79,3.87,3.35,5.89,4.71
				c-0.48-7.92-3.9-15.06-9.19-20.33C116.93,113.86,113.93,112.75,110.94,112.72z"/>
			<radialGradient id="SVGID_4_" cx="105.4324" cy="135.9493" r="81.7739" gradientUnits="userSpaceOnUse">
				<stop  offset="0" style="stop-color:#00367C;stop-opacity:0.8"/>
				<stop  offset="1" style="stop-color:#0EB8B7;stop-opacity:0"/>
			</radialGradient>
			<path class="st4" d="M243.81,69.33c-26.6,0-51.61,12.64-67.41,34.04l-8.55,11.57c-1.62,2.22-3.47,4.25-5.64,5.92
				c-6.5,4.95-13.2,5.53-20.22,1.81l38.2-40.61c-1.67-2.25-3.4-4.22-5.2-5.9c-8.04-7.58-17.21-11.35-27.49-11.35
				c-10.3,0-19.16,3.94-26.6,11.85c-5.91,6.28-9.46,13.15-10.67,20.62c1.06,0.67,2.16,1.28,3.33,1.76
				c6.52,2.72,12.2,7.03,16.62,12.41c-2.1-3.62-2.99-7.31-2.63-11.07c0.4-4.23,2.34-8.22,5.85-11.95c2.98-3.17,6.53-5.15,10.66-5.93
				c4.12-0.79,8.38,0.14,12.79,2.79l-25.71,27.33c5.78,7.57,9.09,17.12,8.72,27.44c-0.02,0.56-0.06,1.11-0.1,1.67
				c3.46,0.92,7.05,1.33,10.8,1.22c7.46-0.24,14.79-3.11,21.41-7.98c4.09-3.01,7.57-6.75,10.59-10.83l7.73-10.5
				c12.54-16.99,32.4-27.01,53.51-27.01h22.87c8.74,0,15.81-7.07,15.81-15.81v-1.47H243.81z"/>
		</g>
		<radialGradient id="SVGID_5_" cx="288.4244" cy="165.6681" r="86.1656" gradientUnits="userSpaceOnUse">
			<stop  offset="0" style="stop-color:#00367C;stop-opacity:0.8"/>
			<stop  offset="1" style="stop-color:#0EB8B7;stop-opacity:0"/>
		</radialGradient>
		<path class="st5" d="M325.68,125.74c-11.34,0-18.29-4.63-20.86-13.9c0,0-2.31,29.35,32.61,29.73c8.4-2.24,15.13-7.02,20.2-14.35
			l-15.39-8.88C338.5,123.28,332.98,125.74,325.68,125.74z"/>
		<radialGradient id="SVGID_6_" cx="364.7737" cy="42.2778" r="106.3925" gradientUnits="userSpaceOnUse">
			<stop  offset="0" style="stop-color:#00367C;stop-opacity:0.8"/>
			<stop  offset="1" style="stop-color:#0EB8B7;stop-opacity:0"/>
		</radialGradient>
		<path class="st6" d="M371.64,107.92v33.06h19.97V100.3c0-11.39,5.47-17.16,16.42-17.16C408.03,83.14,371.64,82.68,371.64,107.92z"
			/>
	</g>
	<g>
		<g>
			<path class="st0" d="M25.18,147.83H5.04V6.11H51.4c19.02,0,34.5,15.48,34.5,34.5S70.43,75.1,51.4,75.1V57.68
				c1.59,0,3.31-2.23,4.74-2.71c5.7-1.91,9.62-8.03,9.62-14.36c0-7.92-6.44-14.36-14.36-14.36H25.18V147.83z"/>
		</g>
		<g>
			<radialGradient id="SVGID_7_" cx="59.6503" cy="86.1973" r="77.1004" gradientUnits="userSpaceOnUse">
				<stop  offset="0" style="stop-color:#00367C;stop-opacity:0.8"/>
				<stop  offset="1" style="stop-color:#0EB8B7;stop-opacity:0"/>
			</radialGradient>
			<path class="st7" d="M51.4,6.11H34.19c0,6.71-0.13,13.43-0.36,20.14H51.4c7.92,0,14.36,6.44,14.36,14.36
				c0,6.33-3.92,12.45-9.62,14.36c-1.43,0.48-3.15,2.71-4.74,2.71V75.1c19.02,0,34.5-15.48,34.5-34.5
				C85.9,21.59,70.43,6.11,51.4,6.11z"/>
		</g>
		<path class="st0" d="M112.66,98.65c-5.4-2.11-9.74-6.41-11.6-11.91c-6.3-18.64-24.35-31.78-44.92-31.78H36.98v5.65
			c0,8,6.49,14.49,14.49,14.49h4.9c14.24,0,26.38,11.05,26.92,25.28c0.57,14.96-11.44,27.31-26.27,27.31h-5.55
			c-8,0-14.49,6.49-14.49,14.49v5.65c3.6,0,20.04,0,20.04,0c18.93,0,35.23-11.38,42.46-27.66c3.51-7.9,13.71-10.04,19.84-3.94
			c6.1,6.07,9.72,14.62,9.21,23.99c-0.92,16.76-15.26,29.66-32.05,29.66H70.92c-2.39-6.12-8.51-10.37-15.57-9.9
			c-7.85,0.51-14.22,7.06-14.54,14.91c-0.37,8.92,6.75,16.26,15.59,16.26c6.62,0,12.26-4.13,14.53-9.94h25.39
			c23.13,0,42.72-18.04,43.55-41.16C140.55,121.28,129.05,105.05,112.66,98.65z M56.39,182.37c-3.77,0-6.83-3.06-6.83-6.83
			c0-3.77,3.06-6.83,6.83-6.83c3.77,0,6.83,3.06,6.83,6.83C63.22,179.31,60.17,182.37,56.39,182.37z"/>
	</g>
</g>
</svg>
